<svg xmlns="http://www.w3.org/2000/svg" viewBox="0 0 510.96 512">
    <g id="Слой_2" data-name="Слой 2">
        <g id="Layer_1" data-name="Layer 1">
            <path d="M374.6,50A166.9,166.9,0,0,0,257.41,0a164.37,164.37,0,0,0-65,12.39A8.72,8.72,0,1,0,199,28.54a147,147,0,0,1,58.18-11.09,150.51,150.51,0,0,1,119.61,239,6.51,6.51,0,0,0-.43.64l-1.68,2.8c-7.92,13.18-14.76,24.56-20.61,34.75a8.72,8.72,0,1,0,15.13,8.69c5.76-10.05,12.56-21.36,20.43-34.46l1.48-2.47A167.94,167.94,0,0,0,374.6,50Z"/>
            <path d="M358.26,391.33a31.26,31.26,0,0,0-14.86-26.6A128.18,128.18,0,0,1,352.74,335a8.72,8.72,0,1,0-16-7,148.16,148.16,0,0,0-10.24,32.1h-79a8.72,8.72,0,0,0,0,17.44H327c.43,0,.86,0,1.28.06l.33,0c.34,0,.68.09,1,.15l.25.05A13.82,13.82,0,0,1,327,405.15H183.18a13.82,13.82,0,0,1-2.87-27.34l.26-.05c.33-.06.66-.11,1-.15l.33,0c.42,0,.85-.07,1.28-.07H213.1a8.72,8.72,0,0,0,0-17.44H183.65C178,330.74,163.2,306,135.55,260l-1.72-2.87c-.14-.22-.28-.44-.43-.65a149.31,149.31,0,0,1-28.81-88.55c0-48.4,24-94.32,64.32-122.84a8.72,8.72,0,0,0-10.07-14.23C114,62.66,87.15,113.9,87.15,167.94a166.67,166.67,0,0,0,31.93,98.51l1.53,2.54c27.87,46.4,41.37,68.88,46.17,95.74a31.21,31.21,0,0,0-5.22,49.14,31.24,31.24,0,0,0,21.62,53.81H197.4a59.71,59.71,0,0,0,115.38,0H327a31.25,31.25,0,0,0,21.63-53.81A31.16,31.16,0,0,0,358.26,391.33ZM255.09,494.56a42.4,42.4,0,0,1-39.37-26.88h78.75A42.41,42.41,0,0,1,255.09,494.56ZM327,450.24H183.18a13.83,13.83,0,0,1,0-27.65H327a13.83,13.83,0,1,1,0,27.65Z"/>
            <rect x="246.98" y="-101.4" width="17" height="715.56" rx="8.5"
                  transform="translate(-106.46 255.74) rotate(-45)"/>
        </g>
    </g>
</svg>