<?xml version="1.0" standalone="no"?>
<!DOCTYPE svg PUBLIC "-//W3C//DTD SVG 20010904//EN"
 "http://www.w3.org/TR/2001/REC-SVG-20010904/DTD/svg10.dtd">
<svg version="1.0" xmlns="http://www.w3.org/2000/svg"
 width="100.000000pt" height="100.000000pt" viewBox="0 0 100.000000 100.000000"
 preserveAspectRatio="xMidYMid meet">
<metadata>
Created by potrace 1.14, written by Peter Selinger 2001-2017
</metadata>
<g transform="translate(0.000000,100.000000) scale(0.100000,-0.100000)"
fill="#000000" stroke="none">
<path d="M110 978 c-26 -14 -57 -41 -75 -66 l-30 -44 -3 -346 c-2 -222 1 -360
7 -383 15 -50 66 -105 114 -124 36 -14 92 -15 394 -13 l351 3 43 30 c23 17 53
50 66 74 23 44 23 47 23 390 -1 336 -1 347 -23 391 -13 27 -39 57 -65 75 l-44
30 -356 3 c-354 3 -357 2 -402 -20z"/>
</g>
</svg>
